<svg xmlns="http://www.w3.org/2000/svg" width="270.186" height="130" viewBox="0 0 270.186 130"><defs><style>.a{fill:#e1000f;}</style></defs><g transform="translate(-84.13 -99.83)"><path class="a" d="M120.067,230.621h-13a2.608,2.608,0,0,1-2.154-.678,3.2,3.2,0,0,1-.357-2.158l4.065-28.164H99.272l-4.051,29.241c-.458,2.947.128,5.307,1.691,7.007a8.784,8.784,0,0,0,6.787,2.557c7.534,0,13.289-.2,17.143-.591l2.374-.27h0c-.1-.115-.2-.225-.293-.344a14.458,14.458,0,0,1-2.855-6.6Z" transform="translate(-5.926 -54.061)"/><path class="a" d="M98.226,130.253h13.821l1.375,10.631h9.289l-6.416-38.374a3.024,3.024,0,0,0-.967-1.906,3.116,3.116,0,0,0-2.08-.774h-8.505a3.318,3.318,0,0,0-3.391,2.291L84.13,140.885h9.729Zm8.134-19.645c.229-.577.7-1.833,1.375-3.8h1.457c.078,1.691.174,2.979.289,3.822l1.581,12.19h-9.756Z" transform="translate(0 0)"/><path class="a" d="M184.553,135.357a17.731,17.731,0,0,1,10.214-3.551h1.251l1.191-8.4h-1.091c-3.767,0-7.547,2.058-11.915,6.122v-5.293h-7.08L173,153.659h9.046Z" transform="translate(-48.145 -12.774)"/><path class="a" d="M309.221,154.383c5.27,0,9.623-.7,12.877-2.076l.105-.046-.619-5.82h-.156a95.5,95.5,0,0,1-11.2.651,7.5,7.5,0,0,1-4.312-.976c-.894-.646-1.324-1.833-1.375-3.634l8.478-.637c3.863-.275,6.768-1.017,8.634-2.209a8.058,8.058,0,0,0,3.432-6.012c.481-3.345-.22-5.911-2.085-7.634s-5.394-2.58-10.54-2.58c-5.522,0-9.623,1.068-12.144,3.167s-4.188,6.049-4.9,11.731c-.632,5.412.115,9.486,2.218,12.1S303.648,154.383,309.221,154.383Zm-2.044-22.871c.889-.917,2.475-1.4,4.706-1.4h.619a8.151,8.151,0,0,1,3.176.4c.518.266.77,1.049.66,2.268a3.686,3.686,0,0,1-1.265,2.727,7.009,7.009,0,0,1-3.387.917l-6.59.628c.5-2.782,1.2-4.647,2.08-5.563Z" transform="translate(-114.349 -12.774)"/><path class="a" d="M374.6,125.22h-8.991l-4.115,29.42h8.986Z" transform="translate(-150.259 -13.755)"/><path class="a" d="M484.047,125.22,481.568,143.3a33.785,33.785,0,0,1-4.743,3.492,7.424,7.424,0,0,1-3.62.985,2.043,2.043,0,0,1-1.792-.674,3.684,3.684,0,0,1-.243-2.4l2.8-19.485h-9.06l-3.029,21.8c-.4,2.594.06,4.665,1.375,6.15s3.4,2.236,6.223,2.236c4,0,8.175-2.035,12.428-6.058v5.293h7.02l4.056-29.42Z" transform="translate(-204.572 -13.755)"/><path class="a" d="M553.058,123.41c-4.271,0-8.707,2.154-13.134,6.416v-5.586h-7.14l-4.092,29.227-.023.174h9.046l2.493-18.028c3.79-2.969,6.8-4.5,8.959-4.532.871-.037,1.448.165,1.691.6a5.062,5.062,0,0,1,.1,2.708l-2.681,19.247h8.986l3.089-21.8c.4-2.676-.092-4.775-1.457-6.241A7.6,7.6,0,0,0,553.058,123.41Z" transform="translate(-240.828 -12.775)"/><path class="a" d="M312.6,217.91c-5.522,0-9.623,1.063-12.144,3.167s-4.184,6.049-4.894,11.731c-.632,5.412.11,9.486,2.218,12.1s6,3.955,11.576,3.955c5.27,0,9.6-.7,12.872-2.076l.105-.046-.619-5.82h-.156a95.52,95.52,0,0,1-11.2.651,7.5,7.5,0,0,1-4.312-.976c-.894-.646-1.32-1.833-1.375-3.634l8.478-.637c3.863-.275,6.768-1.017,8.634-2.209a8.061,8.061,0,0,0,3.437-6.012c.458-3.345-.225-5.911-2.085-7.635S317.737,217.91,312.6,217.91Zm3.868,9.348a3.67,3.67,0,0,1-1.265,2.727,7,7,0,0,1-3.382.916l-6.594.632c.5-2.75,1.2-4.624,2.08-5.54s2.475-1.4,4.706-1.4h.619a8.151,8.151,0,0,1,3.176.4c.518.266.774,1.045.664,2.264Z" transform="translate(-114.424 -63.97)"/><path class="a" d="M385.777,217.91c-4.266,0-8.684,2.154-13.134,6.416v-5.586H365.5l-4.124,29.42h9.051l2.488-18.028c3.79-2.969,6.805-4.5,8.959-4.532.88-.041,1.448.165,1.691.6a5.062,5.062,0,0,1,.1,2.708l-2.681,19.247h9l3.089-21.8c.4-2.676-.092-4.775-1.457-6.241A7.608,7.608,0,0,0,385.777,217.91Z" transform="translate(-150.199 -63.97)"/><path class="a" d="M245.253,112.672c-3.5,0-7.048,1.558-10.576,4.633.261-1.746,1.214-8.922,1.764-13.079a61.863,61.863,0,0,1-8.166-.651l-.715-.105-5.33,37.82.115.041a37.163,37.163,0,0,0,7.447,1.663,61.738,61.738,0,0,0,8.249.651c4.743,0,8.336-1.159,10.677-3.441s3.909-6.246,4.66-11.745c.829-5.678.582-9.765-.724-12.144S248.841,112.672,245.253,112.672Zm-.976,15.122c-.545,3.849-1.306,6.342-2.264,7.419s-2.864,1.622-5.678,1.659c-.509,0-2.021-.037-4.372-.11l1.741-12.474c3.359-2.809,6.2-4.234,8.418-4.234,1.315,0,2.09.426,2.365,1.306s.215,3.093-.211,6.443Z" transform="translate(-74.815 -1.972)"/><path class="a" d="M409.848,105.78l-.715.105a62.926,62.926,0,0,1-8.249.651l-1.182,8.157h-5.339l-.784,6.145h5.233L396.6,136.075c-.4,2.713.092,4.871,1.453,6.416s3.487,2.342,6.264,2.342a24.857,24.857,0,0,0,8.2-1.132l.11-.037-.431-6.416h-4.033a3.1,3.1,0,0,1-2.158-.513c-.325-.339-.38-1.04-.229-2.09l1.929-13.807H415.8l.871-6.15h-8.033Z" transform="translate(-167.644 -3.224)"/><path class="a" d="M374.6,108.6h3.721a2.684,2.684,0,0,0,2.988-2.5l.412-3.208a2.672,2.672,0,0,0-.5-2.145,2.759,2.759,0,0,0-2.131-.742h-3.666a2.6,2.6,0,0,0-2.928,2.552l-.412,3.13a2.262,2.262,0,0,0,2.516,2.91Z" transform="translate(-155.974 -0.098)"/><path class="a" d="M633.95,103.575a61.727,61.727,0,0,1-8.166.651c-.032.229-1.567,9.078-1.567,9.078a58.732,58.732,0,0,0-8.945-.7,16.737,16.737,0,0,0-4.624.568,10.645,10.645,0,0,0-3.776,2.094,11.174,11.174,0,0,0-3.025,4.583,34.529,34.529,0,0,0-1.833,7.712c-.752,5.6-.426,9.7.962,12.2s3.79,3.8,7.1,3.8c4.069,0,8.088-1.952,11.956-5.806v5.1h7.135l5.5-39.387Zm-12.267,27.953a25.016,25.016,0,0,1-4.45,3.277,8.763,8.763,0,0,1-3.978,1.077c-1.375.037-2.126-.458-2.383-1.567a21.978,21.978,0,0,1,.293-6.59c.509-3.808,1.228-6.232,2.149-7.208s2.8-1.457,5.618-1.457h4.486Z" transform="translate(-280.349 -1.972)"/><path class="a" d="M173.785,217.91c-5.527,0-9.623,1.063-12.148,3.167s-4.184,6.04-4.894,11.731c-.632,5.412.115,9.486,2.218,12.1s6,3.955,11.575,3.955c5.27,0,9.623-.7,12.872-2.076l.105-.046-.619-5.82h-.151a95.59,95.59,0,0,1-11.2.651,7.51,7.51,0,0,1-4.312-.976c-.894-.646-1.32-1.833-1.375-3.634l8.478-.637c3.863-.275,6.768-1.017,8.633-2.209a8.061,8.061,0,0,0,3.437-6.012c.458-3.345-.225-5.911-2.085-7.635S178.917,217.91,173.785,217.91Zm3.863,9.348a3.67,3.67,0,0,1-1.265,2.727A7,7,0,0,1,173,230.9l-6.59.632c.5-2.75,1.2-4.624,2.08-5.54s2.47-1.4,4.706-1.4h.619a8.167,8.167,0,0,1,3.176.4C177.515,225.26,177.758,226.039,177.648,227.258Z" transform="translate(-39.22 -63.97)"/><path class="a" d="M245.253,207.122c-3.5,0-7.048,1.558-10.576,4.638.261-1.751,1.214-8.927,1.764-13.083a61.073,61.073,0,0,1-8.166-.651l-.715-.105-5.329,37.8.115.041a36.535,36.535,0,0,0,7.447,1.663,61.743,61.743,0,0,0,8.249.651c4.743,0,8.336-1.155,10.677-3.437s3.9-6.232,4.651-11.754c.829-5.678.582-9.761-.724-12.139S248.841,207.122,245.253,207.122Zm-.976,15.122c-.545,3.849-1.306,6.347-2.264,7.419s-2.864,1.627-5.678,1.663c-.509,0-2.021-.041-4.372-.115l1.741-12.469c3.359-2.814,6.2-4.239,8.418-4.239,1.315,0,2.09.431,2.365,1.311s.215,3.112-.211,6.457Z" transform="translate(-74.815 -53.14)"/><path class="a" d="M109.547,367.713H107.82l-6.562-10.045v10.045H99.53V354.68h1.728l6.581,10.082V354.68h1.709Z" transform="translate(-8.343 -138.064)"/><path class="a" d="M137.523,361.394a8.047,8.047,0,0,1-.646,3.341,4.867,4.867,0,0,1-1.833,2.181,5.041,5.041,0,0,1-2.75.752,4.867,4.867,0,0,1-4.583-2.914,7.822,7.822,0,0,1-.674-3.244v-.949a7.992,7.992,0,0,1,.655-3.322,4.83,4.83,0,0,1,4.583-2.97,5.041,5.041,0,0,1,2.749.756,4.849,4.849,0,0,1,1.833,2.2,8.074,8.074,0,0,1,.646,3.341Zm-1.709-.834A5.9,5.9,0,0,0,134.9,357a3.309,3.309,0,0,0-5.169,0,5.719,5.719,0,0,0-.962,3.441v.958a5.856,5.856,0,0,0,.944,3.529,3.3,3.3,0,0,0,5.178.073,5.79,5.79,0,0,0,.939-3.478Z" transform="translate(-23.245 -137.84)"/><path class="a" d="M160.328,362.438h-3.07v5.274H155.53V354.68h4.312a5.1,5.1,0,0,1,3.387,1,3.6,3.6,0,0,1,1.187,2.919,3.51,3.51,0,0,1-.655,2.117,3.913,3.913,0,0,1-1.833,1.352l3.061,5.531v.11h-1.833Zm-3.061-1.4h2.64a2.965,2.965,0,0,0,2.035-.664,2.25,2.25,0,0,0,.756-1.773,2.346,2.346,0,0,0-.719-1.856,3.043,3.043,0,0,0-2.08-.655h-2.64Z" transform="translate(-38.681 -138.064)"/><path class="a" d="M180.18,367.711V354.679h3.666a5.926,5.926,0,0,1,3.006.752,5.091,5.091,0,0,1,2.021,2.14,6.979,6.979,0,0,1,.719,3.185v.834a7.02,7.02,0,0,1-.71,3.231,5.013,5.013,0,0,1-2.03,2.131,6.337,6.337,0,0,1-3.075.761Zm1.718-11.626V366.3H183.7a3.936,3.936,0,0,0,3.093-1.237,5.1,5.1,0,0,0,1.1-3.519v-.765a5.2,5.2,0,0,0-1.04-3.455,3.707,3.707,0,0,0-2.96-1.246Z" transform="translate(-52.035 -138.063)"/><path class="a" d="M211.179,362.438h-3.061v5.274H206.39V354.68H210.7a5.1,5.1,0,0,1,3.387,1,3.6,3.6,0,0,1,1.187,2.919,3.51,3.51,0,0,1-.655,2.117,3.913,3.913,0,0,1-1.833,1.352l3.047,5.531v.11H214Zm-3.061-1.4h2.64a2.965,2.965,0,0,0,2.035-.664,2.25,2.25,0,0,0,.756-1.773,2.346,2.346,0,0,0-.719-1.856,3.043,3.043,0,0,0-2.08-.655h-2.63Z" transform="translate(-66.234 -138.064)"/><path class="a" d="M241.031,367.713H239.3V361.7h-6.571v6.026H231V354.68h1.718v5.6h6.571v-5.6h1.728Z" transform="translate(-79.566 -138.064)"/><path class="a" d="M266.914,361.7h-5.646v4.619h6.562v1.407H259.55V354.68h8.189v1.407h-6.471v4.2h5.646Z" transform="translate(-95.033 -138.064)"/><path class="a" d="M284.278,367.713H282.56V354.68h1.718Z" transform="translate(-107.499 -138.064)"/><path class="a" d="M303.168,367.713h-1.728l-6.553-10.045v10.045H293.16V354.68h1.728l6.581,10.082V354.68h1.7Z" transform="translate(-113.241 -138.064)"/><path class="a" d="M323.467,370.912H319.1V369.56h4.367Z" transform="translate(-127.294 -146.125)"/><path class="a" d="M334.4,363.6l.247,1.718.367-1.549,2.58-9.092h1.457l2.516,9.092.357,1.576.28-1.755,2.021-8.913h1.7l-3.157,13.033H341.2l-2.685-9.495-.206-.994-.174.994-2.782,9.495h-1.567L330.63,354.68h1.718Z" transform="translate(-133.541 -138.064)"/><path class="a" d="M375.569,361.7h-5.627v4.619H376.5v1.407h-8.3V354.68h8.189v1.407h-6.448v4.2h5.65Z" transform="translate(-153.894 -138.064)"/><path class="a" d="M393.848,361.679a8.066,8.066,0,0,1-3.208-1.563,2.983,2.983,0,0,1-1-2.291,3.139,3.139,0,0,1,1.228-2.543,4.88,4.88,0,0,1,3.208-1.008,5.371,5.371,0,0,1,2.4.518,3.945,3.945,0,0,1,1.627,1.434,3.666,3.666,0,0,1,.577,1.993h-1.764a2.365,2.365,0,0,0-.752-1.861,3.043,3.043,0,0,0-2.122-.678,3.139,3.139,0,0,0-1.98.559,1.865,1.865,0,0,0-.71,1.553,1.682,1.682,0,0,0,.674,1.352,6.691,6.691,0,0,0,2.291,1.008,10.668,10.668,0,0,1,2.543,1.008,3.886,3.886,0,0,1,1.375,1.283,3.3,3.3,0,0,1,.458,1.728,3.052,3.052,0,0,1-1.233,2.539,5.261,5.261,0,0,1-3.3.953,6.2,6.2,0,0,1-2.507-.513,4.212,4.212,0,0,1-1.792-1.411,3.432,3.432,0,0,1-.632-2.03h1.732a2.241,2.241,0,0,0,.871,1.865,3.7,3.7,0,0,0,2.333.683,3.364,3.364,0,0,0,2.085-.555,1.8,1.8,0,0,0,.724-1.512,1.773,1.773,0,0,0-.669-1.48A7.873,7.873,0,0,0,393.848,361.679Z" transform="translate(-165.281 -137.841)"/><path class="a" d="M422.4,356.087h-4.188v11.626H416.5V356.087H412.32V354.68H422.4Z" transform="translate(-177.796 -138.064)"/><path class="a" d="M445.72,361.957h-5.472v5.756H438.53V354.68H446.6v1.407h-6.356v4.463h5.472Z" transform="translate(-191.995 -138.064)"/><path class="a" d="M463.016,364.3h-5.449l-1.224,3.409H454.57l4.977-13.033h1.5l4.986,13.033h-1.764Zm-4.94-1.407H462.5l-2.218-6.095Z" transform="translate(-200.685 -138.064)"/><path class="a" d="M485.148,366.306h6.173v1.407h-7.9V354.68h1.728Z" transform="translate(-216.314 -138.064)"/><path class="a" d="M512.3,361.7h-5.641v4.619h6.558v1.407H504.94V354.68h8.189v1.407h-6.47v4.2H512.3Z" transform="translate(-227.972 -138.064)"/><path class="a" d="M537.693,367.713h-1.728L529.4,357.668v10.045H527.68V354.68H529.4l6.581,10.082V354.68h1.709Z" transform="translate(-240.292 -138.064)"/></g></svg>