<?xml version="1.0" encoding="iso-8859-1"?>
<!-- Generator: Adobe Illustrator 24.0.0, SVG Export Plug-In . SVG Version: 6.00 Build 0)  -->
<svg version="1.1" id="Ebene_1" xmlns="http://www.w3.org/2000/svg" xmlns:xlink="http://www.w3.org/1999/xlink" x="0px" y="0px"
	 viewBox="0 0 543.78 134.89" style="enable-background:new 0 0 543.78 134.89;" xml:space="preserve">
<rect x="2.203" y="2.244" style="fill:none;" width="539.608" height="130.984"/>
<line style="fill:none;stroke:#87888A;stroke-width:2.5;stroke-miterlimit:22.926;" x1="2.203" y1="88.201" x2="541.811" y2="88.201"/>
<path style="fill:#F08A00;" d="M95.185,18.667c20.283,0,36.948,16.66,36.948,36.949c0,20.29-16.666,36.707-36.948,36.707
	c-20.29,0-36.711-16.417-36.711-36.707C58.473,35.327,74.895,18.667,95.185,18.667"/>
<path style="fill:#FFFFFF;" d="M111.844,50.303h1.69c1.933,0,2.902-0.728,2.902-1.69c0-9.905-7.973-19.077-19.325-19.077
	c-13.037,0-23.421,11.831-23.421,27.287c0,14.733,9.898,25.601,22.941,25.601c10.14,0,17.631-7.973,17.631-10.141
	c0-0.728-0.486-1.213-0.967-1.213c-1.935,0-6.279,4.108-13.282,4.108c-10.868,0-17.631-7.973-17.631-21.009
	c0-3.626,0.48-4.593,2.415-4.593L111.844,50.303z M84.316,44.748c0-4.108,6.275-12.074,14.007-12.074c5.795,0,9.66,3.38,9.66,8.451
	c0,5.313-5.796,5.556-19.082,5.556C85.037,46.68,84.316,46.68,84.316,44.748"/>
<path style="fill:#00275B;" d="M156.28,70.827c-5.548,7.011-12.558,6.768-12.558,8.937c0,0.97,0.969,1.697,2.417,1.697
	c1.69,0,4.35-0.485,7.966-0.485h5.32h4.829c1.205,0,1.932,0,1.932-1.212c0-2.653-5.313-2.169-5.313-5.788
	c0-2.663,1.926-4.838,4.344-8.219c1.69-2.411,2.895-3.622,3.623-3.622c0.485,0,0.97,0.241,1.205,0.969l7.488,9.415
	c0.727,0.727,0.97,1.457,0.97,2.175c0,2.901-4.592,2.659-4.592,4.834c0,0.964,1.212,1.448,3.387,1.448h8.936
	c4.101,0,7.003,0.243,8.693,0.243c1.933,0,2.653-0.243,2.653-1.213c0-2.168-3.865-1.206-6.282-4.343l-15.455-19.084
	c-0.72-0.963-1.205-1.691-1.205-2.653c0-0.97,1.448-3.138,4.105-6.519c4.347-5.077,7.242-8.215,8.697-9.178
	c5.07-3.865,9.42-2.175,9.42-4.35c0-1.69-1.212-1.69-3.387-1.69h-1.205c-2.175,0-4.593,0.243-7.003,0.243
	c-2.653,0-5.071-0.243-7.003-0.243c-2.417,0-3.38,0.485-3.38,1.448c0,1.69,1.206,1.454,2.653,1.454
	c1.69,0.236,2.417,0.963,2.417,2.169c0,0.727-1.69,3.865-4.828,9.181c-1.448,2.657-1.697,4.104-3.138,4.104
	c-0.727,0-1.697-0.485-2.175-0.97l-7.01-8.936c-0.721-0.963-1.206-1.69-1.206-2.411c0-2.902,5.313-1.933,5.313-4.107
	c0-1.933-0.721-1.933-3.858-1.933c-0.485,0-3.145,0.243-8.458,0.243c-5.071,0-8.451-0.484-9.657-0.484
	c-0.727,0-1.448,0.484-1.448,1.212c0,2.653,5.067,2.168,9.899,8.451l11.353,14.491c0.236,0.479,1.206,0.721,1.206,1.69
	c0,0.721-0.242,1.449-0.97,2.176L156.28,70.827z"/>
<path style="fill:#00275B;" d="M233.08,66.484v1.689c0,5.071-0.485,7.731-1.933,8.451c-3.38,1.448-6.761,0.728-6.761,2.66
	c0,0.721,0.963,1.448,2.418,1.448c0.963,0,4.101-0.485,9.656-0.485c2.417,0,6.041,0.485,10.869,0.485
	c1.689,0,2.896-0.485,2.896-1.206c0-1.933-2.896-1.689-6.761-3.145c-1.69-0.72-1.69-2.411-1.69-5.556v-20.04
	c0-11.838,0.728-18.356,0.728-19.319c0-1.455-0.243-1.933-1.209-1.933c-1.693,0-4.104,4.344-9.417,6.518
	c-2.418,0.96-4.35,0.96-4.35,2.418c0,2.168,5.555,1.205,5.555,6.761V66.484z M233.323,7.314c0,3.622,2.175,5.313,5.798,5.313
	c3.381,0,5.313-1.933,5.313-5.313c0-3.135-1.932-5.07-5.555-5.07C235.498,2.244,233.323,4.179,233.323,7.314"/>
<path style="fill:#00275B;" d="M298.284,81.938c7.73,0,12.801-3.865,12.801-5.313c0-1.447-0.485-2.175-1.205-2.175
	c-1.212,0-3.381,1.933-7.004,1.933c-6.281,0-9.662-3.38-9.662-10.141c0-16.182,0.728-25.603,0.728-25.838
	c0.477-1.455,2.175-1.697,5.79-1.697h1.697c1.205,0,3.139,0.242,5.792,0.242c4.35,0,4.834-0.242,4.834-3.619
	c0-2.414-1.212-2.899-4.592-2.899c-1.69,0-4.344,0.243-7.966,0.243c-3.381,0-4.351,0-4.351-2.176v-1.689
	c0-3.623-0.243-4.828-2.418-4.828c-2.41,0-3.38,7.245-9.413,10.868c-2.661,1.69-5.078,1.205-5.078,3.623
	c0,0.963,1.939,1.205,5.561,1.448c1.206,0.242,1.449,0,1.449,1.205v1.933c0,2.175,0.242,4.108,0.242,5.555
	c0,5.313-0.97,10.869-0.97,16.667C284.52,76.625,287.18,81.938,298.284,81.938"/>
<path style="fill:#00275B;" d="M352.384,55.373c0-14.491,5.798-22.945,13.765-22.945c9.178,0,17.628,10.626,17.628,24.151
	c0,13.771-7.487,23.185-16.181,23.185C360.107,79.764,352.384,69.138,352.384,55.373 M342.964,56.822
	c0,14.733,10.384,26.329,23.911,26.329c14.97,0,25.838-11.354,25.838-26.807c0-15.219-11.347-26.808-24.875-26.808
	C354.073,29.535,342.964,41.367,342.964,56.822"/>
<path style="fill:#87888A;" d="M224.243,105.687c-0.406-0.54-1.015-0.914-1.965-0.914c-0.95,0-1.56,0.374-1.965,0.914
	c-0.845,1.152-1.015,3.083-1.015,8.809c0,5.725,0.17,7.655,1.015,8.808c0.406,0.544,1.016,0.914,1.965,0.914
	c0.95,0,1.56-0.37,1.965-0.914c0.845-1.152,1.016-3.083,1.016-8.808C225.258,108.77,225.088,106.839,224.243,105.687
	 M226.444,125.098c-0.917,1.019-2.237,1.73-4.166,1.73c-1.933,0-3.22-0.712-4.133-1.73c-1.661-1.828-1.763-4.572-1.763-10.603
	c0-6.031,0.102-8.775,1.763-10.604c0.914-1.016,2.201-1.729,4.133-1.729c1.93,0,3.249,0.714,4.166,1.729
	c1.657,1.828,1.73,4.572,1.73,10.604C228.173,120.525,228.101,123.27,226.444,125.098"/>
<path style="fill:#87888A;" d="M248.089,126.555v-12.908c0-1.625-0.944-2.438-2.1-2.438c-1.149,0-2.066,0.812-2.066,2.438v12.908
	h-2.745v-17.546h2.646v1.352c0.236-0.405,0.708-0.844,1.082-1.083c0.543-0.338,1.185-0.545,1.9-0.545
	c1.316,0,2.233,0.442,2.98,1.291c0.708,0.78,1.048,1.726,1.048,3.623v12.908H248.089z"/>
<path style="fill:#87888A;" d="M265.469,125.472c-0.95-0.78-1.559-1.999-1.559-3.931v-19.107h2.745v19.006
	c0,1.729,0.812,2.643,2.606,2.643v2.473C267.776,126.555,266.518,126.353,265.469,125.472"/>
<path style="fill:#87888A;" d="M281.258,126.555h2.745v-17.242h-2.745V126.555z M281.019,105.89h3.22v-3.181h-3.22V105.89z"/>
<g>
	<defs>
		<rect id="SVGID_1_" x="2.203" y="2.244" width="539.608" height="130.984"/>
	</defs>
	<clipPath id="SVGID_2_">
		<use xlink:href="#SVGID_1_"  style="overflow:visible;"/>
	</clipPath>
	<path style="clip-path:url(#SVGID_2_);fill:#87888A;" d="M304.259,126.555v-12.908c0-1.625-0.949-2.438-2.103-2.438
		c-1.146,0-2.064,0.812-2.064,2.438v12.908h-2.744v-17.546h2.64v1.352c0.242-0.405,0.714-0.844,1.088-1.083
		c0.543-0.338,1.185-0.545,1.894-0.545c1.323,0,2.24,0.442,2.987,1.291c0.707,0.78,1.048,1.726,1.048,3.623v12.908H304.259z"/>
	<path style="clip-path:url(#SVGID_2_);fill:#87888A;" d="M326.18,111.921c-0.341-0.407-0.853-0.747-1.56-0.747
		c-0.714,0-1.185,0.34-1.526,0.747c-0.544,0.645-0.714,2.066-0.714,4.438h4.474C326.853,113.987,326.717,112.565,326.18,111.921
		 M322.38,118.425c0,2.778,0.138,4.403,0.747,5.183c0.34,0.406,0.811,0.747,1.526,0.747c0.642,0,1.152-0.239,1.559-0.678
		c0.374-0.443,0.609-1.187,0.609-1.999h2.712c-0.039,1.556-0.445,2.843-1.389,3.861c-0.852,0.912-2.103,1.289-3.491,1.289
		c-1.526,0-2.542-0.407-3.46-1.356c-1.349-1.393-1.552-3.997-1.552-7.691c0-3.691,0.163-6.3,1.52-7.688
		c0.917-0.949,2.069-1.356,3.459-1.356c1.422,0,2.541,0.374,3.453,1.356c1.46,1.593,1.526,4.573,1.526,8.333H322.38z"/>
</g>
<polygon style="fill:#87888A;" points="371.337,126.555 371.337,109.379 367.511,120.659 365.71,120.659 361.949,109.65 
	361.949,126.555 359.04,126.555 359.04,102.434 361.784,102.434 366.659,115.852 371.507,102.434 374.252,102.434 374.252,126.555 
	"/>
<g>
	<defs>
		<rect id="SVGID_3_" x="2.203" y="2.244" width="539.608" height="130.984"/>
	</defs>
	<clipPath id="SVGID_4_">
		<use xlink:href="#SVGID_3_"  style="overflow:visible;"/>
	</clipPath>
	<path style="clip-path:url(#SVGID_4_);fill:#87888A;" d="M394.102,118.425h-1.559c-0.846,0-1.422,0.135-1.966,0.643
		c-0.505,0.475-0.811,1.458-0.811,2.407c0,1.828,0.714,2.944,2.136,2.944c1.322,0,2.2-1.116,2.2-2.741V118.425z M394.239,126.555
		v-1.559c-0.275,0.476-0.681,0.914-1.016,1.186c-0.543,0.407-1.12,0.646-2.069,0.646c-1.284,0-2.202-0.407-3.014-1.327
		c-0.682-0.776-1.121-2.098-1.121-3.925c0-1.628,0.544-3.046,1.56-3.963c0.884-0.78,1.9-1.189,3.727-1.189h1.795v-2.777
		c0-1.625-0.713-2.507-2.064-2.507c-0.615,0-1.021,0.239-1.357,0.577c-0.478,0.508-0.648,1.085-0.648,2.034h-2.738
		c0-1.356,0.302-2.679,1.35-3.728c0.779-0.78,2.037-1.291,3.394-1.291c1.422,0,2.607,0.41,3.42,1.223
		c0.846,0.881,1.389,2.066,1.389,3.862v12.737H394.239z"/>
	<path style="clip-path:url(#SVGID_4_);fill:#87888A;" d="M415.982,111.379c-1.859,0-3.184,1.219-3.184,3.218v11.958h-2.738v-17.546
		h2.64v1.859c0.269-0.472,0.78-0.946,1.219-1.251c0.812-0.576,1.763-0.882,2.883-0.882v2.644H415.982z"/>
</g>
<polygon style="fill:#87888A;" points="436.75,126.555 433.395,118.288 431.503,121.305 431.503,126.555 428.757,126.555 
	428.757,102.434 431.503,102.434 431.503,117.342 436.482,109.009 439.397,109.009 435.126,115.852 439.803,126.555 "/>
<g>
	<defs>
		<rect id="SVGID_5_" x="2.203" y="2.244" width="539.608" height="130.984"/>
	</defs>
	<clipPath id="SVGID_6_">
		<use xlink:href="#SVGID_5_"  style="overflow:visible;"/>
	</clipPath>
	<path style="clip-path:url(#SVGID_6_);fill:#87888A;" d="M457.655,111.921c-0.342-0.407-0.853-0.747-1.56-0.747
		c-0.714,0-1.185,0.34-1.526,0.747c-0.544,0.645-0.714,2.066-0.714,4.438h4.474C458.329,113.987,458.191,112.565,457.655,111.921
		 M453.855,118.425c0,2.778,0.138,4.403,0.747,5.183c0.341,0.406,0.812,0.747,1.526,0.747c0.642,0,1.152-0.239,1.559-0.678
		c0.373-0.443,0.609-1.187,0.609-1.999h2.713c-0.04,1.556-0.446,2.843-1.389,3.861c-0.853,0.912-2.104,1.289-3.492,1.289
		c-1.526,0-2.542-0.407-3.459-1.356c-1.35-1.393-1.554-3.997-1.554-7.691c0-3.691,0.165-6.3,1.521-7.688
		c0.918-0.949,2.07-1.356,3.459-1.356c1.422,0,2.542,0.374,3.452,1.356c1.462,1.593,1.526,4.573,1.526,8.333H453.855z"/>
	<path style="clip-path:url(#SVGID_6_);fill:#87888A;" d="M475.946,125.472c-0.983-0.813-1.526-2.101-1.526-3.931v-10.404h-1.998
		v-2.128h1.998v-4.813h2.744v4.813h2.713v2.128h-2.713v10.303c0,1.86,0.982,2.643,2.811,2.643v2.473
		C478.415,126.555,477.066,126.421,475.946,125.472"/>
</g>
<path style="fill:#87888A;" d="M492.074,126.555h2.739v-17.242h-2.739V126.555z M491.833,105.89h3.223v-3.181h-3.223V105.89z"/>
<g>
	<defs>
		<rect id="SVGID_7_" x="2.203" y="2.244" width="539.608" height="130.984"/>
	</defs>
	<clipPath id="SVGID_8_">
		<use xlink:href="#SVGID_7_"  style="overflow:visible;"/>
	</clipPath>
	<path style="clip-path:url(#SVGID_8_);fill:#87888A;" d="M515.069,126.555v-12.908c0-1.625-0.943-2.438-2.096-2.438
		c-1.153,0-2.071,0.812-2.071,2.438v12.908h-2.737v-17.546h2.64v1.352c0.236-0.405,0.707-0.844,1.081-1.083
		c0.544-0.338,1.187-0.545,1.899-0.545c1.324,0,2.234,0.442,2.981,1.291c0.713,0.78,1.048,1.726,1.048,3.623v12.908H515.069z"/>
	<path style="clip-path:url(#SVGID_8_);fill:#87888A;" d="M537.533,113.751c0-0.949-0.235-1.559-0.681-2.002
		c-0.367-0.37-0.878-0.575-1.455-0.575c-0.674,0-1.12,0.307-1.486,0.747c-0.649,0.812-0.714,2.574-0.714,5.453
		c0,2.88,0.064,4.642,0.714,5.454c0.366,0.441,0.812,0.747,1.486,0.747c0.577,0,1.088-0.204,1.455-0.577
		c0.412-0.438,0.681-1.084,0.681-1.997V113.751z M538.857,131.908c-0.819,0.849-2.103,1.319-3.46,1.319
		c-1.355,0-2.64-0.409-3.524-1.251c-0.982-0.982-1.316-2.27-1.316-3.797h2.705c0,0.849,0.138,1.596,0.609,2.104
		c0.374,0.37,0.885,0.569,1.494,0.569c0.642,0,1.152-0.262,1.487-0.639c0.479-0.544,0.681-1.421,0.681-3.082v-2.644
		c-0.235,0.374-0.642,0.812-0.982,1.016c-0.512,0.341-1.048,0.475-1.827,0.475c-1.291,0-2.104-0.373-2.883-1.254
		c-1.081-1.252-1.39-3.285-1.39-7.351c0-4.064,0.309-6.132,1.39-7.384c0.714-0.848,1.526-1.255,2.883-1.255
		c0.708,0,1.357,0.204,1.893,0.542c0.341,0.202,0.747,0.608,0.983,0.983v-1.251h2.679v17.985
		C540.278,129.568,539.839,130.893,538.857,131.908"/>
</g>
</svg>
